PathFileType	4	(X/Y/Z)	Formatted/subject04/trials/walk2/markers.trc
DataRate	CameraRate	NumFrames	NumMarkers	Units	OrigDataRate	OrigDataStartFrame	OrigNumFrames
199.9999999999954	199.9999999999954	4	64	m	199.9999999999954	83	223
Frame#	Time	CLAV			C7			RACR			RASH			RPSH			RLEL			RMEL			RUA1			RUA2			RUA3			RFAsuperior			RFAradius			RFAulna			RASI			RPSI			RCAL			RTOE			RMT5			RTH1			RTH2			RTH3			RTB1			RTB2			RTB3			RLFC			RMFC			RLMAL			RMMAL			RHJC			RKJC			REJC			RAJC			RSJC			LACR			LASH			LPSH			LLEL			LMEL			LUA1			LUA2			LUA3			LFAsuperior			LFAradius			LFAulna			LASI			LPSI			LCAL			LTOE			LMT5			LTH1			LTH2			LTH3			LTB1			LTB2			LTB3			LLFC			LMFC			LLMAL			LMMAL			LHJC			LKJC			LEJC			LAJC			LSJC			
		X1	Y1	Z1	X2	Y2	Z2	X3	Y3	Z3	X4	Y4	Z4	X5	Y5	Z5	X6	Y6	Z6	X7	Y7	Z7	X8	Y8	Z8	X9	Y9	Z9	X10	Y10	Z10	X11	Y11	Z11	X12	Y12	Z12	X13	Y13	Z13	X14	Y14	Z14	X15	Y15	Z15	X16	Y16	Z16	X17	Y17	Z17	X18	Y18	Z18	X19	Y19	Z19	X20	Y20	Z20	X21	Y21	Z21	X22	Y22	Z22	X23	Y23	Z23	X24	Y24	Z24	X25	Y25	Z25	X26	Y26	Z26	X27	Y27	Z27	X28	Y28	Z28	X29	Y29	Z29	X30	Y30	Z30	X31	Y31	Z31	X32	Y32	Z32	X33	Y33	Z33	X34	Y34	Z34	X35	Y35	Z35	X36	Y36	Z36	X37	Y37	Z37	X38	Y38	Z38	X39	Y39	Z39	X40	Y40	Z40	X41	Y41	Z41	X42	Y42	Z42	X43	Y43	Z43	X44	Y44	Z44	X45	Y45	Z45	X46	Y46	Z46	X47	Y47	Z47	X48	Y48	Z48	X49	Y49	Z49	X50	Y50	Z50	X51	Y51	Z51	X52	Y52	Z52	X53	Y53	Z53	X54	Y54	Z54	X55	Y55	Z55	X56	Y56	Z56	X57	Y57	Z57	X58	Y58	Z58	X59	Y59	Z59	X60	Y60	Z60	X61	Y61	Z61	X62	Y62	Z62	X63	Y63	Z63	X64	Y64	Z64	

84	1.825	1.768963100510847	1.44691336859308	-0.4256480270370826	1.666758125295805	1.549615768050997	-0.4444583163021554	1.728854046660294	1.492532138693659	-0.2774110051724425	1.782394926352549	1.438636908018028	-0.2578010939423534	1.684513656103406	1.465444336442422	-0.2489042003442959	1.697282615344349	1.163864084275336	-0.1542185118889864	1.640238507090652	1.162884116397698	-0.2187616949886486	1.722376196828401	1.345281509748815	-0.196982704195968	1.667030878326818	1.312268642698631	-0.1761517229463599	1.710285002300348	1.246393510857488	-0.176022966655621	1.740977197718874	1.117712831046022	-0.2381116286901286	1.878222756527037	0.9912548249299271	-0.256400982255817	1.839459319063941	0.9641228034373492	-0.2002636646989918	1.723980577740911	0.9978386208665748	-0.3274878840868704	1.546735848436201	1.052429007747336	-0.4034688253122758	1.415543316015305	0.07259135681799697	-0.3840993965436455	1.649713807607243	0.04856936098680097	-0.384668262890784	1.628651899598666	0.02650807987583559	-0.3105544664491097	1.657867481418446	0.8193997865549628	-0.274362763549611	1.675377573278822	0.7150582072728678	-0.2864119162644687	1.58529733022701	0.5952421585973264	-0.2975971050610098	1.595594334773637	0.3307917235037228	-0.3618466159912128	1.534787272694746	0.2366294699060432	-0.3186224441900229	1.548229612530417	0.159316790496171	-0.3796805414582278	1.579779641907769	0.4747648101113702	-0.3132641243147184	1.584824000697604	0.4891200512689097	-0.437973566540085	1.494175259211002	0.06510219122122118	-0.3185889900537048	1.50169308722661	0.06275647185258315	-0.4195395296591299	1.635069289668342	0.9182550484795827	-0.3821310628718552	1.586905206896833	0.4885118607885231	-0.3804657778709347	1.670873132033684	1.158669509960641	-0.1841588291724333	1.482941480160689	0.05427415255525264	-0.3766303231373427	1.736542445304338	1.451194847863435	-0.2536333441363434	1.700185366979772	1.511690627591597	-0.6238061288478483	1.749833158827526	1.449067282209888	-0.6474650410588524	1.644121386958451	1.478019304908234	-0.6378563959729503	1.576021918663279	1.199926538968263	-0.720047383937792	1.549527374362869	1.195661293342244	-0.638421319307212	1.637892687496199	1.397228156609011	-0.6936567851737826	1.56736456870554	1.34072008931697	-0.6731843678109438	1.606464739930299	1.265475337152138	-0.7093550980456084	1.604158677781461	1.112606872097327	-0.6750414427308143	1.628643970082225	0.9290018574769923	-0.7052857585873225	1.565438079640517	0.9398098134315571	-0.7441706312334837	1.721308847136109	1.013475072998129	-0.584450519990517	1.548204638038036	1.059576175713825	-0.4964654696779802	1.692946379854186	0.1106411009671637	-0.5632156783802893	1.933294987834486	0.08872677806256571	-0.5685281388683779	1.898202564188675	0.0690064015154449	-0.6525898358146452	1.657950131185406	0.8744701845523887	-0.6521920346876242	1.7647824423381	0.7801989178574709	-0.6502282123917128	1.740578425047899	0.6422921596084694	-0.6478321377006088	1.833431988077327	0.371854027146494	-0.600164530062212	1.791805878821273	0.3151029224888356	-0.6407828139704433	1.813162588762296	0.2345981465002638	-0.589180588786015	1.816275846477591	0.5463342823621764	-0.6375132304077897	1.831508958350174	0.5424341352706468	-0.5196846310204517	1.768114350518772	0.1120147954506294	-0.632442343205372	1.78142098907837	0.1108970655706576	-0.5320694602428168	1.633109380606451	0.9297006753407359	-0.5411800864459165	1.82978707589263	0.5418702121950503	-0.5765484795714448	1.561933958223162	1.19125578208732	-0.6811567107517295	1.761046291992759	0.100675302950006	-0.5738445700588614	1.703980677779314	1.461625222055296	-0.6432972912528423	
85	1.83	1.775405712945279	1.445986541431276	-0.426235112742845	1.673305375531455	1.548808463829907	-0.4449605011123727	1.735565111973127	1.491742738578006	-0.2779680564747007	1.789064886641871	1.437790570243878	-0.2584025779808973	1.691230630942215	1.464728190755624	-0.2493826548731586	1.704737333963352	1.163159749070569	-0.1542313803560081	1.647273545235221	1.162095348843141	-0.2183998550558307	1.729479904796063	1.344545469544029	-0.1973332577826696	1.674284719921882	1.31153132987484	-0.1761096483030197	1.717564665627945	1.245673095815511	-0.1761997607587181	1.74795115007343	1.117550399216382	-0.2387266622987396	1.886139823904875	0.9923513770890309	-0.2585147006132292	1.848236869800065	0.9648667727767254	-0.201962851018105	1.729635441004921	0.9969484405282134	-0.327495124736814	1.552573047012953	1.051771413235696	-0.4037332919035114	1.415646645488469	0.072858979542408	-0.3840671370633284	1.649770640666063	0.04838526401891406	-0.384504350514436	1.628628907835777	0.02640621248414279	-0.3103888504973583	1.662760068968458	0.8184454363238536	-0.2745170810835139	1.67937841847639	0.7139590160174096	-0.2865739876670395	1.588280491566028	0.5949066172614768	-0.2976707538626597	1.59687223028004	0.3304402209518051	-0.3618484401846782	1.535646086545177	0.236560915367208	-0.3186003982004404	1.548755669433301	0.1591693910427694	-0.3796309556208356	1.581732534048967	0.4744790779631144	-0.3133239933288877	1.586787615960167	0.4887829593493572	-0.4380389026565745	1.494279727701163	0.06521401256932036	-0.3185146721062222	1.501799653708205	0.06280142493615026	-0.4194634795177813	1.64070161018583	0.9174823995569388	-0.3822725032476545	1.588879472696226	0.4881908188693674	-0.3805214292425935	1.678135032041648	1.157926030995276	-0.1839936507273267	1.48300559555242	0.05441606810814636	-0.376553787355637	1.743234429559367	1.450409498572605	-0.254177195001077	1.706429896293477	1.510736326887844	-0.624333333903015	1.755964109698805	1.448035855402785	-0.6480260189984055	1.650303113543176	1.47712848555547	-0.6382845020420477	1.581063664684264	1.199457324400712	-0.7203972870257295	1.554794667907187	1.195211445706859	-0.6386973485468342	1.643680128044628	1.396525403230261	-0.6940205001587352	1.573021297825375	1.340238919794377	-0.6733890053903446	1.61175977860457	1.264893382678059	-0.7097386682145688	1.608947971705555	1.111961196520196	-0.6755381338658507	1.63256018397988	0.9282834334452307	-0.7060339099291804	1.569305331852121	0.9394064564059731	-0.7447499513288801	1.72736081202208	1.012600301976384	-0.5844606444596647	1.554187469375262	1.058921008499462	-0.4967273354983426	1.713195391305305	0.1051609622761436	-0.563361880972468	1.95411341664953	0.09140852227564876	-0.5700915615848675	1.919230102908088	0.07079505433197517	-0.654025938950371	1.663526574502871	0.873316664799952	-0.6522080285803366	1.770200088790641	0.7788677840961291	-0.6501485840454503	1.745763461507782	0.6410112005011535	-0.6472740050817845	1.844168060330288	0.3711925311202328	-0.6001278385311195	1.804325566346831	0.3131545590143955	-0.6407164490805255	1.828808966340493	0.2332697429356916	-0.5895412896251651	1.821315006846673	0.5449556680346469	-0.6367958208918467	1.836763061943606	0.5413989265785717	-0.5189843407119562	1.787848540393865	0.1093296131654059	-0.6330003376777793	1.801781352622634	0.1083256647957397	-0.532711253450611	1.638989775026034	0.9289379584526282	-0.5413236752282817	1.834679938407279	0.5408900364119122	-0.5758536002477848	1.567060677659365	1.190800796584292	-0.6814727703857	1.781531746921533	0.09754059508874147	-0.5744054767064898	1.710133652616301	1.460654783731512	-0.6438006360185853	
86	1.835	1.781866730213284	1.445014171020341	-0.4268395107566679	1.679869985297158	1.547952563410827	-0.445489395312172	1.74227891451638	1.490905132986152	-0.2785463973097707	1.795737188569024	1.436897535320228	-0.2590204495499264	1.697948569891869	1.46396230747016	-0.2498869854920734	1.712210043405611	1.162404743129454	-0.154274911075603	1.654324444112469	1.161256655103816	-0.2180616839716855	1.736592743250495	1.343759904642686	-0.1977091784410687	1.681552464741651	1.310743297555254	-0.1760907869921351	1.724858050369557	1.244902607620481	-0.1764048193551884	1.754916498810188	1.117314058270822	-0.2393660147623775	1.893995896288453	0.9933541568090068	-0.2606576845873008	1.856959625433436	0.9655383189835902	-0.2036950397757338	1.7353116798525	0.9960281283252617	-0.3275141197210995	1.558439039357435	1.051065602002957	-0.40403766754182	1.4157556351937	0.0731435520154827	-0.3840347625978822	1.649829849672767	0.0481961154576855	-0.3843289568309906	1.628603097150712	0.02630376671463684	-0.3102120966701815	1.667682796826103	0.8174625139292311	-0.2746799762496996	1.683418610665129	0.7128397161012077	-0.2867383717750808	1.591321067901728	0.5945509807846181	-0.2977502685713994	1.598199029470855	0.3300744231500213	-0.3618483204899257	1.536537190624571	0.2364916566682023	-0.318576605977293	1.549302160298195	0.1590191980509985	-0.3795775227314042	1.583755449621255	0.4741806839121876	-0.3133850031635829	1.588831560668439	0.4884288526395145	-0.4381054356075414	1.494387290305906	0.0653358494178175	-0.3184364667629736	1.501911999282189	0.0628528729326176	-0.419383210973232	1.646367194331118	0.9166689770076093	-0.3824289877060594	1.590931051195338	0.4878532679329162	-0.38057873608224	1.685414054823667	1.157132232347388	-0.1838560306631021	1.48307301410823	0.05456889763683964	-0.3764735278765203	1.749928110149711	1.449576027833864	-0.2547418783120252	1.712710251617205	1.509736169988866	-0.6248838177790781	1.762134972327609	1.446960385867435	-0.6486057203124072	1.656523264156281	1.476190339789362	-0.6387415791299258	1.586200437870523	1.198918565036223	-0.7207634322878944	1.560137855331106	1.194698723698923	-0.63899606498604	1.649528948827728	1.395762619569729	-0.694413822091361	1.578743058660282	1.339691335028833	-0.6736324389553495	1.617138014407469	1.264246627790716	-0.710140538971479	1.613815651857031	1.111249345053848	-0.6760292842029147	1.636556916706939	0.9274987388882294	-0.7067473437316314	1.573268320509837	0.9389352925715591	-0.7453166145362713	1.733466356285972	1.011668284636738	-0.584483793655057	1.560210655346972	1.058207947294285	-0.497029406404162	1.733375624080362	0.1000807476959427	-0.563504992321787	1.974576872343162	0.09447823595381032	-0.5716586934151029	1.939919277528768	0.07297963408565622	-0.6554644305777773	1.669170807261659	0.8720904403478591	-0.6522268426205986	1.775635882466002	0.7774098541388248	-0.6500256190182898	1.750895473486021	0.6396181547826214	-0.6466775823262721	1.854708453593707	0.3705742272867135	-0.6000438926748508	1.816680245094817	0.3113163231933066	-0.6406101594507411	1.844260034249073	0.2321612250672355	-0.5898780854608237	1.826247616166006	0.5434273191777903	-0.6360065278509004	1.841862807418334	0.5402093424171464	-0.5182073423445432	1.807408263648976	0.1070129694165278	-0.6335525886642596	1.821975900897607	0.106147582294945	-0.5333524557592715	1.644923267325459	0.9281176652040323	-0.5414833121710715	1.839422609687285	0.5397482998779715	-0.5750842744278135	1.572274209952037	1.190279319230793	-0.6818075505369754	1.801864382251773	0.0948045732589563	-0.574965380149582	1.716325893908295	1.459638878381071	-0.6443271490745058	
87	1.84	1.788345618656324	1.443997035456664	-0.4274611294598951	1.686451196528976	1.54704855953735	-0.4460454486386573	1.748994414186223	1.490020482458222	-0.2791460996401872	1.802410884274589	1.435959144212196	-0.2596544928157252	1.704666393444743	1.463147830314829	-0.2504172929999418	1.719700506687545	1.161599166537483	-0.1543522384082462	1.661392886680831	1.16036779559442	-0.2177519094081062	1.743713412032285	1.342925519099123	-0.1981115858026831	1.688832677388304	1.309904396505664	-0.1760980927054705	1.732164502006689	1.244082456497067	-0.1766403128950683	1.761878085474726	1.117004602179444	-0.2400297954340666	1.901795700923491	0.9942611924469501	-0.2628242559814545	1.86562784110602	0.9661342670036766	-0.2054577929735509	1.741010079421991	0.9950791356668022	-0.3275439801874293	1.564334326593883	1.05031058105223	-0.404381950220788	1.415871303720636	0.07344670787434243	-0.3840024908962115	1.649892032894825	0.04800111208693662	-0.3841403199552311	1.628574273483114	0.02620044394134426	-0.3100225561041345	1.672637245187934	0.8164516933899175	-0.2748509443328499	1.687500449162669	0.7117007682048794	-0.286904135017082	1.594421865979819	0.5941749316920313	-0.2978357067950148	1.599577589942982	0.3296936102772008	-0.3618456675527315	1.53746237925482	0.2364219211117184	-0.3185507437100749	1.549870628540882	0.1588663023765011	-0.3795195840472293	1.585851980989324	0.4738689281324313	-0.3134470633554841	1.5909609256506	0.4880564858358413	-0.438173064555371	1.49449826439768	0.06546873983807322	-0.3183539230649096	1.502031220080193	0.06291144198036608	-0.419298196752957	1.652068413317936	0.9158150492178543	-0.3826005307366181	1.593064426427281	0.487498099852855	-0.3806376234989336	1.692710913271816	1.156288056969424	-0.1837498738997332	1.483144453308336	0.05473360905855595	-0.3763891580530002	1.756622477545348	1.448695684216974	-0.2553273265620215	1.719026242702273	1.508690153863107	-0.6254579167430963	1.768345778585474	1.445840903472276	-0.6492041976042938	1.662781728489241	1.47520468446312	-0.6392280218032477	1.591431073507538	1.198309818284855	-0.7211454956679824	1.565556336290964	1.194122970945909	-0.6393167971060117	1.655438478459045	1.394939627737903	-0.6948366718898699	1.584529092514494	1.33907727081347	-0.6739141207614018	1.62259849364972	1.263534703372662	-0.7105605263902964	1.618761954955502	1.110471508263019	-0.6765146789819174	1.640636219324027	0.9266480289892747	-0.7074257546740852	1.577328425051239	0.9383957056695833	-0.7458698061786099	1.739627643917989	1.010681521792021	-0.5845188572659366	1.566275172563263	1.057436417458296	-0.4973715775377855	1.753438556538641	0.09542090448192941	-0.5636369142782428	1.994639459617762	0.09792504487845238	-0.5732164120502397	1.960223258049262	0.07554919845896918	-0.6568918977589675	1.674890277695913	0.8707972725606665	-0.6522497995748644	1.781102240824185	0.7758373487807926	-0.6498617475110411	1.755994381516645	0.6381241904963506	-0.6460497881755831	1.865052251721188	0.370005205855802	-0.5999135890843768	1.828860014765316	0.3095972673700625	-0.6404631734391415	1.859491574282266	0.2312783951593607	-0.5901861461039574	1.831098599109249	0.5417648113765661	-0.6351539073076027	1.846831955814999	0.5388784303237499	-0.5173618533759916	1.826749587827544	0.1050720507167597	-0.6340897002229379	1.841957412714857	0.1043730144594944	-0.5339834317151015	1.650913055443776	0.9272407091580536	-0.5416588689674431	1.844040961971001	0.5384580785006881	-0.5742491817309815	1.577573651749939	1.189691036244937	-0.6821605553256364	1.821996197380008	0.09247827904709505	-0.57551459669239	1.722557371856233	1.458577443477054	-0.64487703135059	
